<?xml version="1.0" encoding="utf-8"?>
<svg viewBox="-20 -20 640 403.724" width="640" height="403.724" xmlns="http://www.w3.org/2000/svg">
  <path fill-rule="evenodd" d="M 51.419 137.587 C 58.156 137.587 63.827 134.711 69.147 129.324 L 124.112 71.847 C 129.432 66.099 135.458 63.223 142.555 63.223 C 163.829 63.223 172.34 89.806 159.574 102.744 L 103.188 159.142 L 157.8 216.619 C 167.376 227.034 168.085 241.405 158.512 251.823 C 154.253 256.493 148.578 259.01 141.487 259.01 C 134.044 259.01 128.012 256.134 123.403 250.744 L 69.147 191.471 C 64.188 186.084 58.509 183.211 52.128 183.211 L 47.519 183.211 L 47.519 234.58 C 47.519 248.592 37.588 259.372 23.757 259.372 C 10.993 259.372 0 247.874 0 234.58 L 0 24.786 C 0 10.777 10.637 0 23.757 0 C 36.882 0 47.519 10.777 47.519 24.786 L 47.519 137.587 L 51.419 137.587 Z M 334.731 223.806 C 334.731 231.348 331.896 236.735 326.226 240.69 C 307.075 253.982 282.251 260.445 251.401 260.445 C 202.82 260.445 176.578 233.507 176.578 197.223 C 176.578 163.812 200.338 138.667 249.627 138.667 C 260.976 138.667 274.098 140.463 288.991 144.057 L 288.991 134.356 C 288.991 115.315 279.416 106.332 255.303 106.332 C 245.022 106.332 233.67 108.49 221.259 112.442 C 201.758 118.55 188.636 109.205 188.636 93.761 C 188.636 83.342 193.953 76.158 204.24 71.847 C 218.071 65.74 235.443 62.864 256.365 62.864 C 308.492 62.864 334.731 87.294 334.731 135.791 L 334.731 223.806 Z M 288.991 210.155 L 288.991 177.818 C 276.222 173.868 264.52 172.072 253.527 172.072 C 234.734 172.072 222.677 181.411 222.677 195.423 C 222.677 210.87 234.734 219.492 254.591 219.492 C 267.717 219.492 279.413 216.254 288.991 210.149 Z M 405.208 236.126 C 405.208 250.135 395.276 260.912 381.445 260.912 C 368.682 260.912 357.689 249.417 357.689 236.126 L 357.689 26.688 C 357.689 12.679 368.326 1.546 381.445 1.546 C 394.571 1.546 405.208 12.679 405.208 26.688 L 405.208 236.126 Z M 572.957 240.09 C 557.358 253.743 537.854 260.565 514.448 260.565 C 491.397 260.565 471.896 253.743 455.938 240.09 C 439.981 226.439 431.114 208.837 429.344 187.641 C 428.279 170.759 428.279 153.516 429.344 136.272 C 431.114 114.714 439.625 97.112 455.582 83.462 C 471.543 69.812 491.4 62.986 514.451 62.986 C 537.854 62.986 557.355 69.812 572.96 83.462 C 588.561 97.112 597.428 114.714 599.202 136.272 C 600.266 153.157 600.266 170.398 599.202 187.279 C 597.428 208.837 588.561 226.442 572.957 240.09 Z M 552.038 143.812 C 550.979 123.336 536.787 108.969 514.451 108.969 C 492.817 108.969 478.277 122.619 476.504 143.812 C 475.44 155.764 475.44 167.787 476.504 179.74 C 478.277 200.933 492.817 214.583 514.451 214.583 C 536.081 214.583 550.618 200.933 552.038 179.74 C 553.104 167.787 553.104 155.764 552.038 143.812 Z" style="fill: rgb(234, 95, 110);" transform="matrix(1, 0, 0, 1, 2.2737367544323206e-13, 5.684341886080802e-14)"/>
  <g transform="matrix(2.9167170524597172, 0, 0, 2.9167170524597172, -9.570505142211687, 5.83343410491949)">
    <path d="M 32.862 115.167 L 32.912 117.207 L 32.912 121.147 L 30.942 121.147 L 30.942 104.567 L 32.572 104.567 L 32.742 105.907 L 32.812 105.907 C 33.339 105.46 33.919 105.077 34.552 104.757 C 35.185 104.437 35.845 104.277 36.532 104.277 C 37.285 104.277 37.949 104.417 38.522 104.697 C 39.102 104.977 39.582 105.377 39.962 105.897 C 40.349 106.417 40.642 107.04 40.842 107.767 C 41.042 108.494 41.142 109.314 41.142 110.227 C 41.142 111.22 41.005 112.104 40.732 112.877 C 40.459 113.657 40.092 114.317 39.632 114.857 C 39.165 115.404 38.629 115.817 38.022 116.097 C 37.415 116.377 36.775 116.517 36.102 116.517 C 35.555 116.517 35.015 116.397 34.482 116.157 C 33.942 115.917 33.402 115.587 32.862 115.167 Z M 32.912 107.517 L 32.912 113.637 C 33.439 114.084 33.949 114.4 34.442 114.587 C 34.942 114.767 35.382 114.857 35.762 114.857 C 36.242 114.857 36.685 114.75 37.092 114.537 C 37.505 114.317 37.859 114.014 38.152 113.627 C 38.445 113.234 38.679 112.747 38.852 112.167 C 39.019 111.594 39.102 110.947 39.102 110.227 C 39.102 109.587 39.045 109.004 38.932 108.477 C 38.819 107.95 38.639 107.497 38.392 107.117 C 38.145 106.744 37.825 106.454 37.432 106.247 C 37.039 106.034 36.572 105.927 36.032 105.927 C 35.532 105.927 35.032 106.064 34.532 106.337 C 34.025 106.61 33.485 107.004 32.912 107.517 ZM 43.346 113.207 C 43.346 111.927 43.919 110.947 45.066 110.267 C 46.206 109.587 48.026 109.11 50.526 108.837 C 50.526 108.47 50.489 108.11 50.416 107.757 C 50.343 107.404 50.216 107.09 50.036 106.817 C 49.849 106.544 49.603 106.324 49.296 106.157 C 48.996 105.99 48.606 105.907 48.126 105.907 C 47.439 105.907 46.803 106.034 46.216 106.287 C 45.629 106.547 45.106 106.837 44.646 107.157 L 43.856 105.787 C 44.396 105.434 45.059 105.094 45.846 104.767 C 46.626 104.44 47.489 104.277 48.436 104.277 C 49.863 104.277 50.896 104.714 51.536 105.587 C 52.176 106.454 52.496 107.617 52.496 109.077 L 52.496 116.227 L 50.856 116.227 L 50.696 114.837 L 50.646 114.837 C 50.086 115.297 49.483 115.694 48.836 116.027 C 48.183 116.354 47.496 116.517 46.776 116.517 C 45.789 116.517 44.969 116.227 44.316 115.647 C 43.669 115.074 43.346 114.26 43.346 113.207 Z M 45.296 113.057 C 45.296 113.73 45.489 114.21 45.876 114.497 C 46.269 114.784 46.756 114.927 47.336 114.927 C 47.896 114.927 48.426 114.797 48.926 114.537 C 49.433 114.27 49.966 113.88 50.526 113.367 L 50.526 110.127 C 49.546 110.26 48.723 110.414 48.056 110.587 C 47.383 110.76 46.843 110.967 46.436 111.207 C 46.023 111.447 45.729 111.724 45.556 112.037 C 45.383 112.35 45.296 112.69 45.296 113.057 ZM 55.424 119.447 C 55.551 119.474 55.694 119.507 55.854 119.547 C 56.014 119.587 56.164 119.607 56.304 119.607 C 56.977 119.607 57.527 119.374 57.954 118.907 C 58.374 118.434 58.704 117.837 58.944 117.117 L 59.214 116.247 L 54.534 104.567 L 56.574 104.567 L 58.944 111.017 C 59.124 111.53 59.314 112.07 59.514 112.637 C 59.714 113.204 59.901 113.76 60.074 114.307 L 60.174 114.307 C 60.347 113.78 60.514 113.227 60.674 112.647 C 60.834 112.074 60.994 111.53 61.154 111.017 L 63.244 104.567 L 65.164 104.567 L 60.774 117.187 C 60.567 117.76 60.334 118.297 60.074 118.797 C 59.821 119.29 59.517 119.717 59.164 120.077 C 58.811 120.437 58.411 120.72 57.964 120.927 C 57.517 121.14 56.997 121.247 56.404 121.247 C 56.131 121.247 55.884 121.227 55.664 121.187 C 55.437 121.147 55.227 121.087 55.034 121.007 L 55.424 119.447 ZM 66.122 114.907 L 67.112 113.587 C 67.619 114 68.142 114.337 68.682 114.597 C 69.215 114.85 69.835 114.977 70.542 114.977 C 71.309 114.977 71.885 114.8 72.272 114.447 C 72.652 114.1 72.842 113.67 72.842 113.157 C 72.842 112.85 72.762 112.587 72.602 112.367 C 72.442 112.14 72.239 111.944 71.992 111.777 C 71.745 111.61 71.462 111.46 71.142 111.327 C 70.822 111.2 70.502 111.074 70.182 110.947 C 69.762 110.8 69.345 110.637 68.932 110.457 C 68.519 110.27 68.145 110.047 67.812 109.787 C 67.485 109.52 67.219 109.21 67.012 108.857 C 66.805 108.504 66.702 108.08 66.702 107.587 C 66.702 107.12 66.792 106.684 66.972 106.277 C 67.159 105.87 67.425 105.52 67.772 105.227 C 68.112 104.927 68.532 104.694 69.032 104.527 C 69.525 104.36 70.085 104.277 70.712 104.277 C 71.445 104.277 72.119 104.404 72.732 104.657 C 73.352 104.917 73.885 105.23 74.332 105.597 L 73.392 106.847 C 72.992 106.54 72.579 106.29 72.152 106.097 C 71.719 105.904 71.245 105.807 70.732 105.807 C 69.999 105.807 69.459 105.977 69.112 106.317 C 68.765 106.65 68.592 107.04 68.592 107.487 C 68.592 107.76 68.665 107.997 68.812 108.197 C 68.959 108.397 69.152 108.574 69.392 108.727 C 69.632 108.88 69.905 109.017 70.212 109.137 C 70.525 109.257 70.852 109.38 71.192 109.507 C 71.605 109.667 72.025 109.834 72.452 110.007 C 72.872 110.187 73.252 110.407 73.592 110.667 C 73.925 110.934 74.199 111.26 74.412 111.647 C 74.632 112.027 74.742 112.49 74.742 113.037 C 74.742 113.517 74.649 113.964 74.462 114.377 C 74.282 114.797 74.012 115.167 73.652 115.487 C 73.292 115.807 72.842 116.057 72.302 116.237 C 71.769 116.424 71.159 116.517 70.472 116.517 C 69.639 116.517 68.845 116.364 68.092 116.057 C 67.339 115.757 66.682 115.374 66.122 114.907 ZM 81.536 119.447 C 81.662 119.474 81.806 119.507 81.966 119.547 C 82.126 119.587 82.276 119.607 82.416 119.607 C 83.089 119.607 83.639 119.374 84.066 118.907 C 84.486 118.434 84.816 117.837 85.056 117.117 L 85.326 116.247 L 80.646 104.567 L 82.686 104.567 L 85.056 111.017 C 85.236 111.53 85.426 112.07 85.626 112.637 C 85.826 113.204 86.012 113.76 86.186 114.307 L 86.286 114.307 C 86.459 113.78 86.626 113.227 86.786 112.647 C 86.946 112.074 87.106 111.53 87.266 111.017 L 89.356 104.567 L 91.276 104.567 L 86.886 117.187 C 86.679 117.76 86.446 118.297 86.186 118.797 C 85.932 119.29 85.629 119.717 85.276 120.077 C 84.922 120.437 84.522 120.72 84.076 120.927 C 83.629 121.14 83.109 121.247 82.516 121.247 C 82.242 121.247 81.996 121.227 81.776 121.187 C 81.549 121.147 81.339 121.087 81.146 121.007 L 81.536 119.447 ZM 92.568 110.417 C 92.568 109.444 92.718 108.577 93.018 107.817 C 93.311 107.057 93.708 106.414 94.208 105.887 C 94.701 105.354 95.271 104.954 95.918 104.687 C 96.564 104.414 97.248 104.277 97.968 104.277 C 98.688 104.277 99.374 104.414 100.028 104.687 C 100.674 104.954 101.244 105.354 101.738 105.887 C 102.238 106.414 102.634 107.057 102.928 107.817 C 103.221 108.577 103.368 109.444 103.368 110.417 C 103.368 111.377 103.221 112.237 102.928 112.997 C 102.634 113.757 102.238 114.397 101.738 114.917 C 101.244 115.437 100.674 115.834 100.028 116.107 C 99.374 116.38 98.688 116.517 97.968 116.517 C 97.248 116.517 96.564 116.38 95.918 116.107 C 95.271 115.834 94.701 115.437 94.208 114.917 C 93.708 114.397 93.311 113.757 93.018 112.997 C 92.718 112.237 92.568 111.377 92.568 110.417 Z M 94.608 110.417 C 94.608 111.09 94.688 111.7 94.848 112.247 C 95.008 112.787 95.238 113.254 95.538 113.647 C 95.831 114.04 96.188 114.344 96.608 114.557 C 97.021 114.777 97.474 114.887 97.968 114.887 C 98.468 114.887 98.924 114.777 99.338 114.557 C 99.758 114.344 100.114 114.04 100.408 113.647 C 100.701 113.254 100.928 112.787 101.088 112.247 C 101.248 111.7 101.328 111.09 101.328 110.417 C 101.328 109.744 101.248 109.134 101.088 108.587 C 100.928 108.034 100.701 107.557 100.408 107.157 C 100.114 106.757 99.758 106.447 99.338 106.227 C 98.924 106.014 98.468 105.907 97.968 105.907 C 97.474 105.907 97.021 106.014 96.608 106.227 C 96.188 106.447 95.831 106.757 95.538 107.157 C 95.238 107.557 95.008 108.034 94.848 108.587 C 94.688 109.134 94.608 109.744 94.608 110.417 ZM 106.276 111.957 L 106.276 104.567 L 108.266 104.567 L 108.266 111.687 C 108.266 112.794 108.439 113.59 108.786 114.077 C 109.126 114.564 109.682 114.807 110.456 114.807 C 111.062 114.807 111.596 114.654 112.056 114.347 C 112.522 114.034 113.036 113.534 113.596 112.847 L 113.596 104.567 L 115.566 104.567 L 115.566 116.227 L 113.936 116.227 L 113.766 114.407 L 113.696 114.407 C 113.149 115.047 112.576 115.557 111.976 115.937 C 111.376 116.324 110.669 116.517 109.856 116.517 C 108.602 116.517 107.692 116.134 107.126 115.367 C 106.559 114.594 106.276 113.457 106.276 111.957 ZM 154.28 99.237 L 153.84 100.747 C 153.413 100.554 152.973 100.457 152.52 100.457 C 151.433 100.457 150.89 101.21 150.89 102.717 L 150.89 104.567 L 153.36 104.567 L 153.36 106.167 L 150.89 106.167 L 150.89 116.227 L 148.92 116.227 L 148.92 106.167 L 147.34 106.167 L 147.34 104.687 L 148.92 104.567 L 148.92 102.717 C 148.92 101.517 149.196 100.574 149.75 99.887 C 150.303 99.194 151.163 98.847 152.33 98.847 C 152.696 98.847 153.046 98.884 153.38 98.957 C 153.706 99.03 154.006 99.124 154.28 99.237 ZM 154.537 113.207 C 154.537 111.927 155.111 110.947 156.257 110.267 C 157.397 109.587 159.217 109.11 161.717 108.837 C 161.717 108.47 161.681 108.11 161.607 107.757 C 161.534 107.404 161.407 107.09 161.227 106.817 C 161.041 106.544 160.794 106.324 160.487 106.157 C 160.187 105.99 159.797 105.907 159.317 105.907 C 158.631 105.907 157.994 106.034 157.407 106.287 C 156.821 106.547 156.297 106.837 155.837 107.157 L 155.047 105.787 C 155.587 105.434 156.251 105.094 157.037 104.767 C 157.817 104.44 158.681 104.277 159.627 104.277 C 161.054 104.277 162.087 104.714 162.727 105.587 C 163.367 106.454 163.687 107.617 163.687 109.077 L 163.687 116.227 L 162.047 116.227 L 161.887 114.837 L 161.837 114.837 C 161.277 115.297 160.674 115.694 160.027 116.027 C 159.374 116.354 158.687 116.517 157.967 116.517 C 156.981 116.517 156.161 116.227 155.507 115.647 C 154.861 115.074 154.537 114.26 154.537 113.207 Z M 156.487 113.057 C 156.487 113.73 156.681 114.21 157.067 114.497 C 157.461 114.784 157.947 114.927 158.527 114.927 C 159.087 114.927 159.617 114.797 160.117 114.537 C 160.624 114.27 161.157 113.88 161.717 113.367 L 161.717 110.127 C 160.737 110.26 159.914 110.414 159.247 110.587 C 158.574 110.76 158.034 110.967 157.627 111.207 C 157.214 111.447 156.921 111.724 156.747 112.037 C 156.574 112.35 156.487 112.69 156.487 113.057 ZM 166.105 114.907 L 167.095 113.587 C 167.602 114 168.125 114.337 168.665 114.597 C 169.199 114.85 169.819 114.977 170.525 114.977 C 171.292 114.977 171.869 114.8 172.255 114.447 C 172.635 114.1 172.825 113.67 172.825 113.157 C 172.825 112.85 172.745 112.587 172.585 112.367 C 172.425 112.14 172.222 111.944 171.975 111.777 C 171.729 111.61 171.445 111.46 171.125 111.327 C 170.805 111.2 170.485 111.074 170.165 110.947 C 169.745 110.8 169.329 110.637 168.915 110.457 C 168.502 110.27 168.129 110.047 167.795 109.787 C 167.469 109.52 167.202 109.21 166.995 108.857 C 166.789 108.504 166.685 108.08 166.685 107.587 C 166.685 107.12 166.775 106.684 166.955 106.277 C 167.142 105.87 167.409 105.52 167.755 105.227 C 168.095 104.927 168.515 104.694 169.015 104.527 C 169.509 104.36 170.069 104.277 170.695 104.277 C 171.429 104.277 172.102 104.404 172.715 104.657 C 173.335 104.917 173.869 105.23 174.315 105.597 L 173.375 106.847 C 172.975 106.54 172.562 106.29 172.135 106.097 C 171.702 105.904 171.229 105.807 170.715 105.807 C 169.982 105.807 169.442 105.977 169.095 106.317 C 168.749 106.65 168.575 107.04 168.575 107.487 C 168.575 107.76 168.649 107.997 168.795 108.197 C 168.942 108.397 169.135 108.574 169.375 108.727 C 169.615 108.88 169.889 109.017 170.195 109.137 C 170.509 109.257 170.835 109.38 171.175 109.507 C 171.589 109.667 172.009 109.834 172.435 110.007 C 172.855 110.187 173.235 110.407 173.575 110.667 C 173.909 110.934 174.182 111.26 174.395 111.647 C 174.615 112.027 174.725 112.49 174.725 113.037 C 174.725 113.517 174.632 113.964 174.445 114.377 C 174.265 114.797 173.995 115.167 173.635 115.487 C 173.275 115.807 172.825 116.057 172.285 116.237 C 171.752 116.424 171.142 116.517 170.455 116.517 C 169.622 116.517 168.829 116.364 168.075 116.057 C 167.322 115.757 166.665 115.374 166.105 114.907 ZM 177.791 112.627 L 177.791 106.167 L 176.071 106.167 L 176.071 104.687 L 177.891 104.567 L 178.131 101.297 L 179.791 101.297 L 179.791 104.567 L 182.931 104.567 L 182.931 106.167 L 179.791 106.167 L 179.791 112.647 C 179.791 113.367 179.921 113.924 180.181 114.317 C 180.448 114.71 180.918 114.907 181.591 114.907 C 181.798 114.907 182.021 114.874 182.261 114.807 C 182.501 114.747 182.718 114.677 182.911 114.597 L 183.291 116.087 C 182.971 116.194 182.625 116.294 182.251 116.387 C 181.871 116.474 181.498 116.517 181.131 116.517 C 180.505 116.517 179.981 116.42 179.561 116.227 C 179.135 116.034 178.791 115.77 178.531 115.437 C 178.265 115.097 178.075 114.687 177.961 114.207 C 177.848 113.727 177.791 113.2 177.791 112.627 Z" transform="matrix(1, 0, 0, 1, 0, 0)" style="fill: rgb(51, 51, 51); white-space: pre;"/>
    <path d="M 128.429 121.9 L 131.429 112.9 L 122.429 112.9 L 136.429 97.9 L 133.429 106.9 L 142.429 106.9 L 128.429 121.9 Z" style="fill: rgb(51, 51, 51);"/>
  </g>
</svg>